<svg xmlns="http://www.w3.org/2000/svg" data-name="pc_コンポーネント 5" viewBox="0 0 599.531 35"><defs><clipPath id="a"><path fill="none" d="M0 0h387v35H0z"/></clipPath></defs><g fill="#3c2b1c" data-name="Path 7"><path d="M161.5 34.5h-34V.5h34v34z"/><path fill="#707070" d="M128 1v33h33V1h-33m-1-1h35v35h-35V0z"/></g><text fill="#fff" data-name="１" font-family="PingFangSC-Semibold, PingFang SC" font-size="16" font-weight="600" transform="translate(137 24)"><tspan x="0" y="0">１</tspan></text><g clip-path="url(#a)" data-name="Repeat Grid 8" transform="translate(177)"><g fill="#fff" stroke="#707070" data-name="Rectangle 37"><path stroke="none" d="M0 0h35v35H0z"/><path fill="none" d="M.5.5h34v34H.5z"/></g><text fill="#707070" data-name="2" font-family="Roboto-Bold, Roboto" font-size="16" font-weight="700" transform="translate(13 24)"><tspan x="0" y="0">2</tspan></text><g fill="#fff" stroke="#707070" data-name="Rectangle 37"><path stroke="none" d="M50 0h35v35H50z"/><path fill="none" d="M50.5.5h34v34h-34z"/></g><text fill="#707070" data-name="3" font-family="Roboto-Bold, Roboto" font-size="16" font-weight="700" transform="translate(63 24)"><tspan x="0" y="0">3</tspan></text><g fill="#fff" stroke="#707070" data-name="Rectangle 37"><path stroke="none" d="M100 0h35v35h-35z"/><path fill="none" d="M100.5.5h34v34h-34z"/></g><text fill="#707070" data-name="4" font-family="Roboto-Bold, Roboto" font-size="16" font-weight="700" transform="translate(113 24)"><tspan x="0" y="0">4</tspan></text><g fill="#fff" stroke="#707070" data-name="Rectangle 37"><path stroke="none" d="M150 0h35v35h-35z"/><path fill="none" d="M150.5.5h34v34h-34z"/></g><text fill="#707070" data-name="5" font-family="Roboto-Bold, Roboto" font-size="16" font-weight="700" transform="translate(163 24)"><tspan x="0" y="0">5</tspan></text><g><g fill="#fff" stroke="#707070" data-name="Rectangle 37"><path stroke="none" d="M200 0h35v35h-35z"/><path fill="none" d="M200.5.5h34v34h-34z"/></g><text fill="#707070" data-name="6" font-family="Roboto-Bold, Roboto" font-size="16" font-weight="700" transform="translate(213 24)"><tspan x="0" y="0">6</tspan></text></g><g><g fill="#fff" stroke="#707070" data-name="Rectangle 37"><path stroke="none" d="M250 0h35v35h-35z"/><path fill="none" d="M250.5.5h34v34h-34z"/></g><text fill="#707070" data-name="7" font-family="Roboto-Bold, Roboto" font-size="16" font-weight="700" transform="translate(263 24)"><tspan x="0" y="0">7</tspan></text></g><g><g fill="#fff" stroke="#707070" data-name="Rectangle 37"><path stroke="none" d="M300 0h35v35h-35z"/><path fill="none" d="M300.5.5h34v34h-34z"/></g><text fill="#707070" data-name="8" font-family="Roboto-Bold, Roboto" font-size="16" font-weight="700" transform="translate(313 24)"><tspan x="0" y="0">8</tspan></text></g><g><g fill="#fff" stroke="#707070" data-name="Rectangle 37"><path stroke="none" d="M350 0h35v35h-35z"/><path fill="none" d="M350.5.5h34v34h-34z"/></g><text fill="#707070" data-name="9" font-family="Roboto-Bold, Roboto" font-size="16" font-weight="700" transform="translate(363 24)"><tspan x="0" y="0">9</tspan></text></g></g><text fill="#707070" data-name="page 1/10" font-family="Roboto-Bold, Roboto" font-size="16" font-weight="700" transform="translate(0 24)"><tspan x="0" y="0">page 1/10</tspan></text><g fill="none" stroke="#707070" data-name="Group 7"><path d="M100.823 9l-8.533 8.533 8.533 8.533" data-name="Path 4"/><path d="M109.823 9l-8.533 8.533 8.533 8.533" data-name="Path 5"/></g><g fill="none" stroke="#707070" data-name="Group 8"><path d="M590.291 26.065l8.533-8.533-8.533-8.533" data-name="Path 4"/><path d="M581.291 26.065l8.533-8.533-8.533-8.533" data-name="Path 5"/></g></svg>